<?xml version="1.0" encoding="UTF-8"?>
<svg width="320px" height="160px" viewBox="0 0 320 160" version="1.1" xmlns="http://www.w3.org/2000/svg" xmlns:xlink="http://www.w3.org/1999/xlink">
    <title>Limn-LED-matrix-art-2</title>
    <g id="Limn-LED-matrix-art-2" stroke="none" stroke-width="1" fill="none" fill-rule="evenodd">
        <g id="Group-3-Copy" fill="#000000" fill-opacity="0.85">
            <rect id="Rectangle-Copy-31" x="280" y="120" width="40" height="40"></rect>
            <rect id="Rectangle-Copy-30" x="240" y="120" width="40" height="40"></rect>
            <rect id="Rectangle-Copy-29" x="200" y="120" width="40" height="40"></rect>
            <rect id="Rectangle-Copy-28" x="160" y="120" width="40" height="40"></rect>
            <rect id="Rectangle-Copy-27" x="120" y="120" width="40" height="40"></rect>
            <rect id="Rectangle-Copy-26" x="80" y="120" width="40" height="40"></rect>
            <rect id="Rectangle-Copy-25" x="40" y="120" width="40" height="40"></rect>
            <rect id="Rectangle-Copy-24" x="0" y="120" width="40" height="40"></rect>
            <rect id="Rectangle-Copy-23" x="280" y="80" width="40" height="40"></rect>
            <rect id="Rectangle-Copy-22" x="240" y="80" width="40" height="40"></rect>
            <rect id="Rectangle-Copy-21" x="200" y="80" width="40" height="40"></rect>
            <rect id="Rectangle-Copy-20" x="160" y="80" width="40" height="40"></rect>
            <rect id="Rectangle-Copy-19" x="120" y="80" width="40" height="40"></rect>
            <rect id="Rectangle-Copy-18" x="80" y="80" width="40" height="40"></rect>
            <rect id="Rectangle-Copy-17" x="40" y="80" width="40" height="40"></rect>
            <rect id="Rectangle-Copy-16" x="0" y="80" width="40" height="40"></rect>
            <rect id="Rectangle-Copy-15" x="280" y="40" width="40" height="40"></rect>
            <rect id="Rectangle-Copy-14" x="240" y="40" width="40" height="40"></rect>
            <rect id="Rectangle-Copy-13" x="200" y="40" width="40" height="40"></rect>
            <rect id="Rectangle-Copy-12" x="160" y="40" width="40" height="40"></rect>
            <rect id="Rectangle-Copy-11" x="120" y="40" width="40" height="40"></rect>
            <rect id="Rectangle-Copy-10" x="80" y="40" width="40" height="40"></rect>
            <rect id="Rectangle-Copy-9" x="40" y="40" width="40" height="40"></rect>
            <rect id="Rectangle-Copy-8" x="0" y="40" width="40" height="40"></rect>
            <rect id="Rectangle-Copy-7" x="280" y="0" width="40" height="40"></rect>
            <rect id="Rectangle-Copy-6" x="240" y="0" width="40" height="40"></rect>
            <rect id="Rectangle-Copy-5" x="200" y="0" width="40" height="40"></rect>
            <rect id="Rectangle-Copy-4" x="160" y="0" width="40" height="40"></rect>
            <rect id="Rectangle-Copy-3" x="120" y="0" width="40" height="40"></rect>
            <rect id="Rectangle-Copy-2" x="80" y="0" width="40" height="40"></rect>
            <rect id="Rectangle-Copy" x="40" y="0" width="40" height="40"></rect>
            <rect id="Rectangle" x="0" y="0" width="40" height="40"></rect>
        </g>
        <g id="Axes-Indicator" transform="translate(88.672000, 8.800000)" fill-rule="nonzero">
            <polygon id="X" fill="#0091FF" points="5.148 25.2 9.396 14.832 10.26 14.832 14.508 25.2 19.656 25.2 14.472 12.888 14.472 12.24 19.656 0 14.508 0 10.26 10.296 9.396 10.296 5.148 0 0 0 5.184 12.24 5.184 12.888 0 25.2"></polygon>
            <polygon id="Y" fill="#FA6400" points="13.204 64.2 13.204 55.344 14.284 55.344 21.52 39 16.336 39 11.152 51.024 10.504 51.024 5.32 39 0.136 39 7.372 55.344 8.452 55.344 8.452 64.2"></polygon>
            <polygon id="Z" fill="#0091FF" points="20.08 101.2 20.08 96.664 5.392 96.664 5.392 96.016 19.648 83.776 19.648 76 1.72 76 1.72 80.536 15.76 80.536 15.76 81.184 1.504 93.424 1.504 101.2"></polygon>
            <polygon id="K" fill="#6D7278" points="6.545 145.2 6.545 134.007 7.676 134.007 15.125 145.2 21.17 145.2 21.17 144.966 12.278 131.901 12.278 131.199 20.702 118.134 20.702 117.9 14.891 117.9 7.676 129.093 6.545 129.093 6.545 117.9 1.397 117.9 1.397 145.2"></polygon>
        </g>
        <g id="Alert" transform="translate(9.000000, 6.000000)" fill="#A77A00" fill-rule="nonzero">
            <path d="M27.4891277,1.88776403 L1.89552612,27.4845644 C-0.631842039,29.9802525 -0.631842039,34.0117485 1.89552612,36.5074366 L27.4891277,62.104237 C29.9845039,64.631921 34.0154961,64.631921 36.5108723,62.104237 L62.1044739,36.5074366 C64.631842,34.0117485 64.631842,29.9802525 62.1044739,27.4845644 L36.5108723,1.88776403 C35.1992002,0.607924009 33.5996001,0 32,0 C30.4003999,0 28.8007998,0.607924009 27.4891277,1.88776403 Z M36,9 L36,37 L27,37 L27,9 L36,9 Z M27,46 L36,46 L36,55 L27,55 L27,46 Z" id="Shape"></path>
        </g>
        <g id="nfc-variant-copy" transform="translate(16.000000, 95.000000)" fill="#6DD400" fill-rule="nonzero">
            <path d="M40,10 L27.5,10 C24.7385763,10 22.5,12.2385763 22.5,15 L22.5,20.7 C21.025,21.55 20,23.15 20,25 C20,27.7614237 22.2385763,30 25,30 C27.775,30 30,27.75 30,25 C30,23.15 29,21.55 27.5,20.7 L27.5,15 L35,15 L35,35 L15,35 L15,15 L20,15 L20,10 L15,10 L10,10 L10,40 L40,40 M45,45 L5,45 L5,5 L45,5 M45,0 L5,0 C2.23857625,0 0,2.23857625 0,5 L0,45 C0,47.7614237 2.23857625,50 5,50 L45,50 C47.775,50 50,47.75 50,45 L50,5 C50,2.225 47.775,0 45,0 Z" id="Shape"></path>
        </g>
        <g id="Matrix" transform="translate(124.000000, 4.000000)">
            <rect id="Rectangle" fill="#C3CA80" x="80" y="0" width="32" height="32" rx="2"></rect>
            <rect id="Rectangle-Copy-32" fill="#575757" x="80" y="40" width="32" height="32" rx="2"></rect>
            <rect id="Rectangle-Copy-33" fill="#C3CA80" x="80" y="80" width="32" height="32" rx="2"></rect>
            <rect id="Rectangle-Copy-34" fill="#575757" x="80" y="120" width="32" height="32" rx="2"></rect>
            <rect id="Rectangle-Copy-38" fill="#C3CA80" x="40" y="0" width="32" height="32" rx="2"></rect>
            <rect id="Rectangle-Copy-37" fill="#575757" x="40" y="40" width="32" height="32" rx="2"></rect>
            <rect id="Rectangle-Copy-36" fill="#575757" x="40" y="80" width="32" height="32" rx="2"></rect>
            <rect id="Rectangle-Copy-35" fill="#C3CA80" x="40" y="120" width="32" height="32" rx="2"></rect>
            <rect id="Rectangle-Copy-42" fill="#C3CA80" x="120" y="0" width="32" height="32" rx="2"></rect>
            <rect id="Rectangle-Copy-41" fill="#C3CA80" x="120" y="40" width="32" height="32" rx="2"></rect>
            <rect id="Rectangle-Copy-40" fill="#575757" x="120" y="80" width="32" height="32" rx="2"></rect>
            <rect id="Rectangle-Copy-39" fill="#575757" x="120" y="120" width="32" height="32" rx="2"></rect>
            <path d="M4,0 L30,0 C31.1045695,0 32,0.8954305 32,2 L32,30 C32,31.1045695 31.1045695,32 30,32 L2,32 C0.8954305,32 0,31.1045695 0,30 L0,4 C0,1.790861 1.790861,4.4408921e-16 4,0 Z" id="Rectangle-Copy-46" fill="#575757"></path>
            <rect id="Rectangle-Copy-45" fill="#575757" x="0" y="40" width="32" height="32" rx="2"></rect>
            <rect id="Rectangle-Copy-44" fill="#575757" x="0" y="80" width="32" height="32" rx="2"></rect>
            <path d="M2,120 L30,120 C31.1045695,120 32,120.895431 32,122 L32,150 C32,151.104569 31.1045695,152 30,152 L4,152 C1.790861,152 0,150.209139 0,148 L0,122 C0,120.895431 0.8954305,120 2,120 Z" id="Rectangle-Copy-43" fill="#575757"></path>
            <path d="M162,0 L188,0 C190.209139,0 192,1.790861 192,4 L192,30 C192,31.1045695 191.104569,32 190,32 L162,32 C160.895431,32 160,31.1045695 160,30 L160,2 C160,0.8954305 160.895431,2.22044605e-16 162,0 Z" id="Rectangle-Copy-50" fill="#C3CA80"></path>
            <rect id="Rectangle-Copy-49" fill="#C3CA80" x="160" y="40" width="32" height="32" rx="2"></rect>
            <rect id="Rectangle-Copy-48" fill="#C3CA80" x="160" y="80" width="32" height="32" rx="2"></rect>
            <path d="M162,120 L190,120 C191.104569,120 192,120.895431 192,122 L192,147 C192,149.761424 189.761424,152 187,152 L162,152 C160.895431,152 160,151.104569 160,150 L160,122 C160,120.895431 160.895431,120 162,120 Z" id="Rectangle-Copy-47" fill="#C3CA80"></path>
        </g>
    </g>
</svg>
